<svg xmlns="http://www.w3.org/2000/svg" viewBox="0 0 48 48">
  <rect width="48" height="48" fill="#F7DF1E" rx="6"/>
  <path d="M30.6 33.6c1.2 2 2.8 3.6 6 3.6 2.5 0 4.1-1.2 4.1-3.6 0-2.5-1.8-3.4-4.8-4.9l-1.7-.8c-2.5-1.2-4.1-2.7-4.1-5.9 0-2.9 2.2-5.1 5.6-5.1 2.4 0 4.1.8 5.3 3l-2.9 1.9c-.6-1.1-1.2-1.5-2.4-1.5-1.1 0-1.8.7-1.8 1.5 0 1 0 1.4 2.5 2.3l1.7.7c3.7 1.6 5.8 3.6 5.8 7.8 0 4.5-3.5 6.7-8.6 6.7-4.8 0-7.9-2.3-9.4-5.3zM14.3 34.4c1 1.8 1.9 3.3 4.2 3.3 2.1 0 3.4-0.8 3.4-3.9V21.4h4.6v13.8c0 5.7-3.3 8.3-8.1 8.3-4.3 0-6.8-2.2-8.1-4.9z" fill="#000"/>
</svg>
